<svg width="129" height="20" fill="none" xmlns="http://www.w3.org/2000/svg"><path d="M6.105 19L2.145 4.176.398 4V1.937h6.868V4l-1.84.27 2.004 8.296.363 1.524h.07l.434-1.524 3.375-10.629h2.52l3.503 10.922.41 1.348h.07l.352-1.348 2.075-8.59L18.656 4V1.937h6.739V4l-1.63.176L19.759 19h-3.094L13.43 9.027l-.41-1.406h-.07l-.458 1.453L9.222 19H6.106zm20.333 0v-2.05l1.652-.352V8.734l-1.828-.351V6.32h5.25v10.278l1.64.351V19h-6.715zm1.535-15.363V.719h3.539v2.918h-3.54zM34.113 19v-2.05l1.653-.352V3.133l-1.828-.352V.72h5.25v15.879l1.652.351V19h-6.727zm7.664 0v-2.05l1.653-.352V3.133l-1.828-.352V.72h5.25v15.879l1.652.351V19h-6.727zm15.282.246c-.79 0-1.461-.152-2.016-.457a3.958 3.958 0 01-1.395-1.348L53.402 19H50.45V3.133l-1.816-.352V.72h5.226v6.949a3.79 3.79 0 011.348-1.172c.54-.273 1.164-.41 1.875-.41 1.54 0 2.723.61 3.55 1.828.837 1.211 1.255 2.828 1.255 4.852v.246c0 1.89-.418 3.402-1.254 4.535-.836 1.133-2.028 1.7-3.574 1.7zm-1.043-2.66c.875 0 1.504-.309 1.886-.926.383-.625.575-1.508.575-2.648v-.246c0-1.235-.196-2.211-.586-2.93-.383-.727-.996-1.09-1.84-1.09-.516 0-.957.121-1.324.363-.368.243-.657.57-.868.985v5.297c.477.796 1.196 1.195 2.157 1.195zm13.699 2.66c-1.219 0-2.281-.265-3.188-.797a5.612 5.612 0 01-2.097-2.215c-.493-.937-.739-2.007-.739-3.21v-.47c0-1.257.235-2.37.703-3.34.47-.976 1.13-1.741 1.981-2.296.86-.563 1.871-.84 3.035-.832 1.711 0 3.02.504 3.926 1.512.906 1 1.36 2.406 1.36 4.218v1.864h-7.454l-.023.07c.062.836.34 1.523.832 2.063.492.539 1.191.808 2.097.808.625 0 1.208-.078 1.746-.234a6.884 6.884 0 001.594-.715l.926 2.11c-.523.421-1.183.773-1.98 1.054-.79.273-1.696.41-2.72.41zm-2.45-7.828h4.231v-.305c0-.765-.16-1.37-.48-1.816-.313-.453-.829-.68-1.547-.68-.688 0-1.211.262-1.57.785-.36.516-.583 1.168-.668 1.957l.035.059zM76.535 19v-2.05l1.64-.352V8.734l-1.816-.351V6.32h5.004l.13 1.57.023.282c.625-1.39 1.562-2.086 2.812-2.086.203 0 .422.016.656.047.243.031.461.078.657.14l-.364 3.153-1.699-.094c-.484-.023-.879.059-1.184.246a2.715 2.715 0 00-.796.809v6.21l1.64.352V19h-6.703zm10.383 0v-2.05l1.64-.352V8.734l-1.816-.351V6.32h5.004l.129 1.57.023.282c.625-1.39 1.563-2.086 2.813-2.086.203 0 .422.016.656.047.242.031.461.078.656.14l-.363 3.153-1.7-.094c-.483-.023-.878.059-1.183.246a2.715 2.715 0 00-.796.809v6.21l1.64.352V19h-6.703zm10.184 0v-2.05l1.652-.352V8.734l-1.828-.351V6.32h5.25v10.278l1.64.351V19h-6.714zm1.535-15.363V.719h3.539v2.918h-3.54zm12.398 15.609c-1.219 0-2.281-.265-3.187-.797a5.609 5.609 0 01-2.098-2.215c-.492-.937-.738-2.007-.738-3.21v-.47c0-1.257.234-2.37.703-3.34.469-.976 1.129-1.741 1.98-2.296.86-.563 1.871-.84 3.035-.832 1.711 0 3.02.504 3.926 1.512.906 1 1.36 2.406 1.36 4.218v1.864h-7.454l-.023.07c.063.836.34 1.523.832 2.063.492.539 1.191.808 2.098.808.625 0 1.207-.078 1.746-.234a6.891 6.891 0 001.594-.715l.925 2.11c-.523.421-1.183.773-1.98 1.054-.789.273-1.695.41-2.719.41zm-2.449-7.828h4.23v-.305c0-.765-.16-1.37-.48-1.816-.313-.453-.828-.68-1.547-.68-.687 0-1.211.262-1.57.785-.36.516-.582 1.168-.668 1.957l.035.059zm14.449 7.828c-.945 0-1.828-.09-2.648-.27a12.108 12.108 0 01-2.344-.773l-.035-3.586h2.379l.457 1.828c.265.133.554.239.867.317.32.078.684.117 1.09.117.765 0 1.304-.125 1.617-.375.312-.25.469-.563.469-.938 0-.351-.168-.66-.504-.925-.336-.274-.996-.512-1.981-.715-1.507-.313-2.617-.797-3.328-1.453-.703-.657-1.054-1.496-1.054-2.52 0-.695.175-1.336.527-1.922.359-.586.902-1.05 1.629-1.394.734-.352 1.672-.528 2.812-.528.953 0 1.824.094 2.614.282.796.18 1.464.418 2.003.714l.036 3.47h-2.368l-.363-1.665c-.453-.312-1.023-.469-1.711-.469-.594 0-1.054.125-1.383.375-.32.243-.48.551-.48.926 0 .328.141.625.422.89.289.259.918.497 1.887.716 1.57.359 2.714.84 3.433 1.441.719.594 1.078 1.43 1.078 2.508 0 1.18-.429 2.133-1.289 2.86-.851.726-2.129 1.09-3.832 1.09z" fill="#262D33"/></svg>